<?xml version="1.0" standalone="no"?>
<!DOCTYPE svg PUBLIC "-//W3C//DTD SVG 20010904//EN"
 "http://www.w3.org/TR/2001/REC-SVG-20010904/DTD/svg10.dtd">
<svg version="1.0" xmlns="http://www.w3.org/2000/svg"
 width="700.000000pt" height="700.000000pt" viewBox="0 0 700.000000 700.000000"
 preserveAspectRatio="xMidYMid meet">
<metadata>
Created by potrace 1.11, written by Peter Selinger 2001-2013
</metadata>
<g transform="translate(0.000000,700.000000) scale(0.100000,-0.100000)"
fill="#000000" stroke="none">
<path d="M5138 6704 c-2 -1 -25 -5 -53 -8 -449 -60 -844 -409 -960 -851 -32
-120 -40 -186 -38 -325 1 -100 22 -255 39 -281 4 -8 -48 -45 -103 -75 -20 -11
-141 -82 -458 -267 -66 -39 -151 -89 -190 -112 -38 -23 -88 -52 -110 -64 -22
-12 -49 -27 -60 -34 -63 -40 -126 -77 -129 -77 -2 0 -114 -65 -251 -145 l-247
-144 -41 39 c-157 146 -367 249 -597 291 -95 17 -309 14 -405 -6 -182 -38
-355 -114 -485 -212 -148 -112 -292 -291 -361 -448 -26 -62 -79 -215 -74 -215
3 0 1 -10 -4 -22 -13 -34 -24 -151 -24 -248 -2 -563 395 -1041 952 -1146 352
-66 739 45 997 286 38 36 43 37 65 25 13 -8 35 -20 49 -27 14 -7 27 -15 30
-18 3 -3 16 -11 30 -18 14 -7 39 -20 55 -31 38 -23 1224 -714 1285 -749 81
-45 78 -43 69 -74 -4 -15 -13 -63 -20 -106 -112 -723 447 -1362 1181 -1347
294 6 570 122 782 328 416 406 471 1044 131 1519 -275 383 -768 563 -1226 447
-180 -46 -361 -141 -490 -258 l-53 -49 -59 32 c-33 18 -193 111 -355 206 -162
95 -326 191 -365 213 -38 22 -162 94 -275 160 -113 67 -214 126 -225 131 -11
6 -77 44 -146 85 l-126 74 9 36 c40 161 42 381 5 542 -13 55 -13 56 12 71 14
8 148 86 296 173 149 87 284 166 300 176 17 10 41 24 55 32 14 7 161 93 328
191 167 97 317 185 335 195 41 23 133 77 173 102 l31 19 74 -61 c41 -33 81
-66 89 -73 24 -18 111 -69 152 -88 20 -9 51 -23 70 -32 153 -70 382 -104 558
-84 246 29 424 100 610 243 237 184 407 485 437 775 39 374 -79 711 -340 971
-213 212 -491 328 -799 334 -70 1 -129 1 -130 -1z m202 -588 c315 -46 535
-351 484 -671 -32 -203 -190 -387 -392 -457 -96 -33 -268 -33 -364 0 -147 51
-270 159 -337 296 -46 94 -61 159 -61 259 1 194 107 389 269 491 60 38 162 75
224 82 29 3 53 7 54 8 4 4 70 0 123 -8z m-3525 -2040 c136 -12 249 -68 355
-175 174 -177 210 -464 86 -685 -21 -37 -61 -92 -90 -120 -46 -47 -74 -68
-156 -118 -71 -43 -259 -72 -350 -53 -14 2 -38 7 -55 11 -54 11 -129 47 -191
90 -293 205 -329 630 -74 884 92 92 217 154 335 167 27 2 52 6 53 8 2 2 9 2
15 0 7 -2 39 -6 72 -9z m3618 -2065 c82 -29 154 -72 214 -128 54 -50 123 -145
123 -169 0 -8 4 -14 9 -14 5 0 11 -10 14 -22 2 -13 12 -50 21 -83 16 -59 22
-171 11 -230 -46 -247 -233 -436 -476 -480 -60 -11 -182 -6 -243 10 -163 43
-302 156 -375 305 -48 99 -63 165 -60 275 3 133 37 227 122 341 75 100 189
175 317 208 80 21 248 14 323 -13z"/>
</g>
</svg>
